<?xml version="1.0" encoding="utf-8"?>
<!-- Generator: Adobe Illustrator 21.0.2, SVG Export Plug-In . SVG Version: 6.00 Build 0)  -->
<svg version="1.1" id="Layer_1" xmlns="http://www.w3.org/2000/svg" xmlns:xlink="http://www.w3.org/1999/xlink" x="0px" y="0px"
	 viewBox="0 0 32 32" style="enable-background:new 0 0 32 32;" xml:space="preserve">
<style type="text/css">
	.st0{fill:#FFFFFF;}
</style>
<title>equalizer2</title>
<path class="st0" d="M28,14h0.5c0.8,0,1.5-0.7,1.5-1.5v-5C30,6.7,29.3,6,28.5,6H28V0h-4v6h-0.5C22.7,6,22,6.7,22,7.5v5
	c0,0.8,0.7,1.5,1.5,1.5H24v18h4V14z M24,8h4v4h-4V8z M18.5,26c0.8,0,1.5-0.7,1.5-1.5v-5c0-0.8-0.7-1.5-1.5-1.5H18V0h-4v18h-0.5
	c-0.8,0-1.5,0.7-1.5,1.5v5c0,0.8,0.7,1.5,1.5,1.5H14v6h4v-6H18.5z M14,20h4v4h-4V20z M8.5,14c0.8,0,1.5-0.7,1.5-1.5v-5
	C10,6.7,9.3,6,8.5,6H8V0H4v6H3.5C2.7,6,2,6.7,2,7.5v5C2,13.3,2.7,14,3.5,14H4v18h4V14H8.5z M4,8h4v4H4V8z"/>
</svg>
